<svg width="157" height="157" viewBox="0 0 157 157" fill="none" xmlns="http://www.w3.org/2000/svg">
<g clip-path="url(#clip0)">
<path d="M153.695 56.0119C151.884 49.9745 148.149 49.6608 145.807 50.7331L87.9712 74.6894C85.4372 75.7388 83.6216 75.6158 82.5823 74.5775C81.5441 73.5383 81.4214 71.723 82.4707 69.1883L106.428 11.3524C107.499 9.00995 107.186 5.27506 101.149 3.46404C74.4122 -4.54451 44.2467 2.0081 23.1283 23.1265C-7.49719 53.752 -7.49719 103.405 23.1283 134.031C53.7538 164.656 103.407 164.656 134.033 134.031C155.152 112.912 161.704 82.7471 153.695 56.0119Z" fill="#555555" fill-opacity="0.5"/>
<path d="M41.5217 87.0513C44.1679 87.0513 46.313 84.9062 46.313 82.26C46.313 79.6139 44.1679 77.4688 41.5217 77.4688C38.8756 77.4688 36.7305 79.6139 36.7305 82.26C36.7305 84.9062 38.8756 87.0513 41.5217 87.0513Z" fill="#555555" fill-opacity="0.5"/>
<path d="M115.48 87.0513C118.126 87.0513 120.271 84.9062 120.271 82.26C120.271 79.6139 118.126 77.4688 115.48 77.4688C112.834 77.4688 110.688 79.6139 110.688 82.26C110.688 84.9062 112.834 87.0513 115.48 87.0513Z" fill="#555555" fill-opacity="0.5"/>
<path d="M46.6472 98.9068H36.3953C34.9884 98.9068 33.8486 97.767 33.8486 96.3601C33.8486 94.9533 34.9884 93.8135 36.3953 93.8135H46.6472C48.0541 93.8135 49.1939 94.9533 49.1939 96.3601C49.1939 97.767 48.0538 98.9068 46.6472 98.9068Z" fill="#555555" fill-opacity="0.5"/>
<path d="M120.605 98.9068H110.353C108.946 98.9068 107.807 97.767 107.807 96.3601C107.807 94.9533 108.946 93.8135 110.353 93.8135H120.605C122.012 93.8135 123.152 94.9533 123.152 96.3601C123.152 97.767 122.012 98.9068 120.605 98.9068Z" fill="#555555" fill-opacity="0.5"/>
<path d="M72.4992 84.5024C77.2117 84.5024 81.0459 88.3361 81.0459 93.0486C81.0459 94.4554 79.9061 95.5952 78.4992 95.5952C77.0924 95.5952 75.9526 94.4554 75.9526 93.0486C75.9526 91.1446 74.4037 89.5958 72.4995 89.5958C70.5956 89.5958 69.0464 91.1446 69.0464 93.0486C69.0464 94.4554 67.9066 95.5952 66.4998 95.5952C65.0929 95.5952 63.9531 94.4554 63.9531 93.0486C63.9525 88.3364 67.7867 84.5024 72.4992 84.5024Z" fill="#555555" fill-opacity="0.5"/>
<path d="M84.4988 84.5034C89.2113 84.5034 93.0449 88.3371 93.0449 93.0495C93.0449 94.4564 91.9051 95.5962 90.4983 95.5962C89.0914 95.5962 87.9516 94.4564 87.9516 93.0495C87.9516 91.1456 86.4028 89.5967 84.4988 89.5967C82.5949 89.5967 81.0457 91.1456 81.0457 93.0495C81.0457 94.4564 79.9059 95.5962 78.4991 95.5962C77.0922 95.5962 75.9524 94.4564 75.9524 93.0495C75.9521 88.3374 79.7861 84.5034 84.4988 84.5034Z" fill="#555555" fill-opacity="0.5"/>
<path opacity="0.2" d="M3.55503 55.0326C-0.0875572 66.7291 -0.929594 79.1079 1.03168 91.12C5.93702 91.3463 10.9175 89.5861 14.6637 85.8408C21.7297 78.7746 21.7297 67.3179 14.6643 60.2528C11.5605 57.1493 7.60914 55.4101 3.55503 55.0326ZM33.7123 22.7003C31.7807 20.7688 29.3414 19.6563 26.8245 19.3582C25.509 20.5094 24.222 21.7105 22.9682 22.9643C19.6267 26.3052 16.6505 29.8739 14.0382 33.6186C14.5147 35.6823 15.5548 37.642 17.1622 39.2501C21.7324 43.8202 29.1421 43.8202 33.7117 39.2501C38.2825 34.6805 38.2825 27.2702 33.7123 22.7003ZM54.8337 111.115C41.972 111.115 31.5452 121.542 31.5452 134.403C31.5452 137.197 32.0386 139.876 32.9405 142.358C42.4773 149.199 53.2012 153.643 64.2823 155.688C72.434 152.063 78.1216 143.9 78.1216 134.403C78.1216 121.542 67.6949 111.115 54.8337 111.115ZM75.7289 21.0061C81.4137 15.3222 82.521 6.7973 79.0596 0.00213421C67.3622 -0.0932312 55.6488 2.41233 44.8584 7.51883C44.6738 12.3782 46.4324 17.2973 50.1421 21.0064C57.2071 28.0724 68.6639 28.0724 75.7289 21.0061ZM131.875 91.9694C124.809 99.0344 124.809 110.491 131.875 117.557C135.008 120.689 139.004 122.43 143.098 122.784C149.859 112.952 154.126 101.922 155.897 90.5778C148.794 84.9424 138.44 85.4032 131.875 91.9694ZM137.041 54.1363L110.956 64.9408C111.644 66.7202 112.703 68.389 114.138 69.8256C119.652 75.339 128.593 75.339 134.108 69.8256C138.35 65.5829 139.325 59.3139 137.041 54.1363ZM71.1286 34.529C64.0633 41.5949 64.0633 53.0514 71.1293 60.1167C74.6323 63.6201 79.2154 65.3842 83.8061 65.4136L96.632 34.4487C89.5596 27.4665 78.1676 27.4913 71.1286 34.529ZM103.331 140.103C99.7064 143.728 98.96 149.14 101.087 153.504C108.489 151.276 115.625 147.93 122.233 143.469C121.67 142.251 120.887 141.108 119.882 140.103C115.312 135.533 107.902 135.533 103.331 140.103Z" fill="#555555" fill-opacity="0.5"/>
</g>
<defs>
<clipPath id="clip0">
<rect width="157" height="157" fill="white"/>
</clipPath>
</defs>
</svg>
