<?xml version="1.0" encoding="utf-8"?>
<!-- Generator: Adobe Illustrator 22.1.0, SVG Export Plug-In . SVG Version: 6.00 Build 0)  -->
<svg version="1.1" id="Calque_1" xmlns="http://www.w3.org/2000/svg" xmlns:xlink="http://www.w3.org/1999/xlink" x="0px" y="0px"
	 viewBox="0 0 511 512" style="enable-background:new 0 0 511 512;" xml:space="preserve">
<style type="text/css">
	.st0{fill:#F7C92B;}
	.st1{fill:#F2B51D;}
	.st2{fill:#F7E249;}
</style>
<path class="st0" d="M292.3,448.8c0-33.1-26.8-59.9-60-59.9s-60,26.8-60,59.9s26.8,59.9,60,59.9S292.3,481.9,292.3,448.8z"/>
<path class="st1" d="M232.4,389c-6.1,0-11.9,0.9-17.4,2.6c24.6,7.5,42.5,30.3,42.5,57.3c0,27-17.9,49.8-42.5,57.3
	c5.5,1.7,11.4,2.6,17.4,2.6c33.1,0,60-26.8,60-59.9S265.5,389,232.4,389z"/>
<path class="st0" d="M239.4,99.4c-19.3,3.9-38-8.6-41.9-27.8c-3.9-19.2,8.6-37.9,27.9-41.8s38,8.6,41.9,27.8
	C271.1,76.8,258.6,95.5,239.4,99.4z"/>
<path class="st1" d="M267.2,57.6c-3.9-19.2-22.6-31.7-41.9-27.8c-1.8,0.4-3.5,0.9-5.2,1.5c11.2,4.1,20.1,13.8,22.7,26.4
	c3.5,17.4-6.4,34.5-22.7,40.4c5.9,2.2,12.5,2.8,19.2,1.5C258.6,95.5,271.1,76.8,267.2,57.6z"/>
<path class="st2" d="M380.9,438.8H83.8c-26.6,0-48.1-21.5-48.1-48c0-14.7,6.7-28.6,18.1-37.8l9.5-7.7c22.1-17.8,34.9-44.6,34.9-72.9
	v-50.5C98.3,147.4,158.8,87,233.4,87c74.6,0,135.1,60.4,135.1,134.9v51.4c0,27.8,12.4,54.1,33.7,71.9l9.3,7.7
	c11.1,9.2,17.5,22.9,17.5,37.3v0.5C429,417.3,407.5,438.8,380.9,438.8z"/>
<path class="st0" d="M411.5,353l-9.3-7.7c-21.4-17.8-33.7-44.1-33.7-71.9v-51.4C368.5,147.4,308,87,233.4,87
	c-13.2,0-26,1.9-38.1,5.4c56.1,16.4,97,68.2,97,129.5v51.4c0,27.8,12.4,54.1,33.7,71.9l9.3,7.7c11.1,9.2,17.5,22.9,17.5,37.3v0.5
	c0,26.5-21.5,48-48.1,48h76.1c26.6,0,48.1-21.5,48.1-48v-0.5C429,375.9,422.6,362.2,411.5,353z"/>
</svg>
